<svg width="512" height="512" xmlns="http://www.w3.org/2000/svg">
 <g>
  <title>background</title>
  <rect x="-1" y="-1" width="514" height="514" id="canvas_background" fill="none"/>
 </g>

 <g>
  <title>Layer 1</title>
  <path d="m389.699,251.826s-13.403,19.689 -41.493,36.356c0,0 20.344,-171.938 -112.212,-201.8c33.962,124.643 -43.199,159.794 -71.326,93.943c-46.971,62.713 -11.307,117.427 -11.307,117.427c-19.26,2.775 -35.439,-18.267 -35.439,-18.267c-0.145,2.592 -0.225,5.202 -0.225,7.83c0,76.383 61.921,138.303 138.303,138.303s138.303,-61.921 138.303,-138.303c0,-12.27 -1.605,-24.163 -4.604,-35.489z" fill="#f36b38" id="svg_1"/>
  <path d="m389.699,251.826s-13.403,19.689 -41.493,36.356c0,0 18.22,-154.012 -92.206,-195.825l0,333.261c76.383,0 138.303,-61.921 138.303,-138.303c0,-12.27 -1.605,-24.163 -4.604,-35.489z" fill="#db450d" id="svg_2"/>
  <path d="m316.654,364.964c0,33.498 -27.156,60.654 -60.654,60.654s-60.654,-27.156 -60.654,-60.654c0,-17.93 7.78,-34.042 20.147,-45.146c23.451,31.86 56.87,-16.469 30.826,-51.761c0,-0.001 70.335,8.813 70.335,96.907z" fill="#fbda35" id="svg_3"/>
  <path d="m256,270.385l0,155.232c33.498,0 60.654,-27.156 60.654,-60.654c0,-67.563 -41.371,-88.492 -60.654,-94.578z" fill="#f7ba35" id="svg_4"/>
  <text fill="#ff5656" stroke-width="0" stroke-opacity="null" fill-opacity="null" x="277.016331" y="465.399684" id="svg_6" font-size="24" font-family="'Simonetta', serif" text-anchor="start" xml:space="preserve" transform="matrix(4.418054256093967,0,0,3.207162858515204,-965.0505801509566,-997.0691815355517) " stroke="null" font-weight="bold">Fire</text>
  <text fill="#ff5656" stroke-width="0" stroke-opacity="null" fill-opacity="0.9" x="30.054402" y="470.717891" id="svg_7" font-size="24" font-family="'Simonetta', serif" text-anchor="start" xml:space="preserve" transform="matrix(3.9148099422454834,0,0,3.128827810287475,-51.78899033367634,-978.0453763902186) " stroke="null">Wild</text>
 </g>
</svg>